# xmcd
#
# Track frame offsets: 
#        150
#        86621
#        104854
#        116423
#        186488
#        211060
#
# Disc length: 3350 seconds
#
# Revision: 0
# Processed by: cddbd v1.5.2PL0 Copyright (c) Steve Scherf et al.
# Submitted via: ExactAudioCopy v0.95b4
#
DISCID=520d1406
DTITLE=Roy Buchanan and Bugs Henderson - Panther Hall  Jan. 1978
DYEAR=1978
DGENRE=Blues
TTITLE0=Stormy Monday 
TTITLE1=Honky Tonk 
TTITLE2=Shenandoah 
TTITLE3=Green Onions
TTITLE4=Sweet Dreams 
TTITLE5=The Messiah Will Come Again
EXTD=
EXTT0=
EXTT1=
EXTT2=
EXTT3=
EXTT4=
EXTT5=
PLAYORDER=
